<svg width="404" height="81" viewBox="0 0 404 81" fill="none" xmlns="http://www.w3.org/2000/svg">
<path d="M54.1501 80.8613L41.6598 68.371C38.6046 69.2097 35.4895 69.629 32.3145 69.629C26.5036 69.629 21.2019 68.2811 16.4095 65.5854C11.617 62.8297 7.813 59.0257 4.99743 54.1733C2.24176 49.261 0.863925 43.7497 0.863925 37.6393C0.863925 31.5289 2.24176 26.0475 4.99743 21.1952C7.813 16.2829 11.617 12.4789 16.4095 9.78311C21.2019 7.02744 26.5036 5.6496 32.3145 5.6496C38.1852 5.6496 43.5169 7.02744 48.3093 9.78311C53.1018 12.4789 56.8759 16.2529 59.6315 21.1053C62.3872 25.9577 63.765 31.469 63.765 37.6393C63.765 43.6299 62.4471 49.0214 59.8112 53.8139C57.1754 58.6063 53.5511 62.3804 48.9383 65.1361L64.7535 80.8613H54.1501ZM9.22079 37.6393C9.22079 42.6115 10.2092 46.9846 12.1861 50.7587C14.2229 54.5327 16.9786 57.4382 20.4531 59.475C23.9876 61.5118 27.9414 62.5302 32.3145 62.5302C36.6876 62.5302 40.6114 61.5118 44.086 59.475C47.6204 57.4382 50.3761 54.5327 52.353 50.7587C54.3898 46.9846 55.4082 42.6115 55.4082 37.6393C55.4082 32.6072 54.3898 28.2341 52.353 24.5199C50.3761 20.7459 47.6504 17.8404 44.1758 15.8036C40.7013 13.7668 36.7475 12.7484 32.3145 12.7484C27.8814 12.7484 23.9277 13.7668 20.4531 15.8036C16.9786 17.8404 14.2229 20.7459 12.1861 24.5199C10.2092 28.2341 9.22079 32.6072 9.22079 37.6393ZM118.407 19.7574V69H110.23V61.7214C108.672 64.2375 106.486 66.2144 103.67 67.6521C100.914 69.03 97.8591 69.7189 94.5044 69.7189C90.6705 69.7189 87.2259 68.9401 84.1707 67.3825C81.1155 65.7651 78.6893 63.3689 76.8921 60.1938C75.1548 57.0188 74.2862 53.1549 74.2862 48.6021V19.7574H82.3735V47.5238C82.3735 52.3761 83.6016 56.1203 86.0577 58.7561C88.5138 61.3321 91.8686 62.62 96.1219 62.62C100.495 62.62 103.94 61.2722 106.456 58.5764C108.972 55.8806 110.23 51.9568 110.23 46.8049V19.7574H118.407ZM136.437 11.76C134.879 11.76 133.561 11.2208 132.483 10.1425C131.405 9.06424 130.866 7.74631 130.866 6.18876C130.866 4.63121 131.405 3.31328 132.483 2.23497C133.561 1.15667 134.879 0.617517 136.437 0.617517C137.934 0.617517 139.193 1.15667 140.211 2.23497C141.289 3.31328 141.828 4.63121 141.828 6.18876C141.828 7.74631 141.289 9.06424 140.211 10.1425C139.193 11.2208 137.934 11.76 136.437 11.76ZM140.391 19.7574V69H132.213V19.7574H140.391ZM160.438 62.2606H184.61V69H151.092V62.2606L174.995 26.407H151.272V19.7574H184.43V26.407L160.438 62.2606Z" fill="#3B3B3B"/>
<path d="M202.139 61.9012H232.691V69H192.434V62.5302L222.807 13.4673H192.794V6.36848H232.511V12.8383L202.139 61.9012ZM265.311 69.8087C260.698 69.8087 256.505 68.7604 252.731 66.6637C249.017 64.567 246.081 61.6016 243.925 57.7677C241.828 53.8738 240.78 49.3808 240.78 44.2889C240.78 39.2568 241.858 34.8237 244.015 30.9898C246.231 27.0959 249.226 24.1305 253 22.0938C256.775 19.997 260.998 18.9487 265.671 18.9487C270.343 18.9487 274.567 19.997 278.341 22.0938C282.115 24.1305 285.08 27.0659 287.237 30.8999C289.453 34.7339 290.561 39.1969 290.561 44.2889C290.561 49.3808 289.423 53.8738 287.147 57.7677C284.93 61.6016 281.905 64.567 278.071 66.6637C274.237 68.7604 269.984 69.8087 265.311 69.8087ZM265.311 62.62C268.246 62.62 271.002 61.9311 273.578 60.5533C276.154 59.1754 278.221 57.1087 279.778 54.353C281.396 51.5974 282.205 48.2426 282.205 44.2889C282.205 40.3351 281.426 36.9803 279.868 34.2247C278.311 31.469 276.274 29.4322 273.758 28.1143C271.242 26.7365 268.516 26.0475 265.581 26.0475C262.585 26.0475 259.83 26.7365 257.314 28.1143C254.858 29.4322 252.881 31.469 251.383 34.2247C249.885 36.9803 249.137 40.3351 249.137 44.2889C249.137 48.3025 249.855 51.6872 251.293 54.4429C252.791 57.1986 254.768 59.2653 257.224 60.6431C259.68 61.9611 262.376 62.62 265.311 62.62ZM325.305 18.8588C331.296 18.8588 336.148 20.686 339.862 24.3402C343.576 27.9346 345.433 33.1464 345.433 39.9756V69H337.346V41.1438C337.346 36.2315 336.118 32.4874 333.662 29.9115C331.206 27.2756 327.851 25.9577 323.598 25.9577C319.285 25.9577 315.84 27.3056 313.264 30.0013C310.748 32.6971 309.49 36.6209 309.49 41.7728V69H301.313V19.7574H309.49V26.7664C311.107 24.2504 313.294 22.3034 316.05 20.9256C318.865 19.5478 321.95 18.8588 325.305 18.8588ZM403.72 42.4917C403.72 44.0492 403.63 45.6966 403.451 47.4339H364.092C364.392 52.2863 366.039 56.0903 369.035 58.846C372.09 61.5417 375.774 62.8896 380.087 62.8896C383.622 62.8896 386.557 62.0809 388.893 60.4634C391.29 58.7861 392.967 56.5695 393.926 53.8139H402.732C401.414 58.5464 398.778 62.4104 394.824 65.4057C390.87 68.341 385.958 69.8087 380.087 69.8087C375.415 69.8087 371.221 68.7604 367.507 66.6637C363.853 64.567 360.977 61.6016 358.881 57.7677C356.784 53.8738 355.736 49.3808 355.736 44.2889C355.736 39.1969 356.754 34.7339 358.791 30.8999C360.828 27.0659 363.673 24.1305 367.327 22.0938C371.042 19.997 375.295 18.9487 380.087 18.9487C384.76 18.9487 388.893 19.9671 392.488 22.0039C396.082 24.0407 398.838 26.8563 400.755 30.4506C402.732 33.9851 403.72 37.9987 403.72 42.4917ZM395.273 40.7844C395.273 37.6693 394.585 35.0035 393.207 32.7869C391.829 30.5105 389.942 28.8032 387.546 27.665C385.209 26.4669 382.603 25.8678 379.728 25.8678C375.594 25.8678 372.06 27.1857 369.125 29.8216C366.249 32.4575 364.602 36.1117 364.182 40.7844H395.273Z" fill="#66FCF1"/>
</svg>
